# Exported from Wings 3D 1.4.1
mtllib data/colorcube.mtl
o cube1
#8 vertices, 12 faces
v -1.00000000 -1.00000000 1.00000000
v -1.00000000 1.00000000 1.00000000
v 1.00000000 1.00000000 1.00000000
v 1.00000000 -1.00000000 1.00000000
v -1.00000000 -1.00000000 -1.00000000
v -1.00000000 1.00000000 -1.00000000
v 1.00000000 1.00000000 -1.00000000
v 1.00000000 -1.00000000 -1.00000000
vn -0.57735027 -0.57735027 0.57735027
vn -0.57735027 0.57735027 0.57735027
vn 0.57735027 0.57735027 0.57735027
vn 0.57735027 -0.57735027 0.57735027
vn -0.57735027 -0.57735027 -0.57735027
vn -0.57735027 0.57735027 -0.57735027
vn 0.57735027 0.57735027 -0.57735027
vn 0.57735027 -0.57735027 -0.57735027
g cube1_blue
usemtl blue
s 1
f 1//1 4//4 2//2
f 2//2 4//4 3//3
f 5//5 7//7 8//8
f 6//6 7//7 5//5
g cube1_green
usemtl green
s 1
f 2//2 5//5 1//1
f 4//4 7//7 3//3
f 6//6 5//5 2//2
f 8//8 7//7 4//4
g cube1_red
usemtl red
s 1
f 1//1 5//5 4//4
f 2//2 7//7 6//6
f 3//3 7//7 2//2
f 4//4 5//5 8//8
